# xmcd
# 
# Track frame offsets:
#     150
#     22000
#     39502
#     60790
#     76162
#     93530
#     112475
#     136325
#     159885
#     175267
# 
# Disc length: 2589
# 
# Revision: 1
# Processed by: cddbd v1.5.2PL0 Copyright (c) Steve Scherf et al.
# Submitted via: BonkEnc v1.0
# 
DISCID=780a1b0a
DTITLE=Umut Altincag - Mevsimsiz Kar
DYEAR=2001
DGENRE=Ethnic
TTITLE0=Mevsimsiz Kar
TTITLE1=Merdana Mina
TTITLE2=Yitirilen
TTITLE3=Meymaniye
TTITLE4=Pore Zerde
TTITLE5=Asmera Roz Vineto
TTITLE6=Ülke Ol
TTITLE7=Ere Xime
TTITLE8=Hasretim Seni
TTITLE9=Lo Berde
EXTD=YEAR: 2001
EXTT0=
EXTT1=
EXTT2=
EXTT3=
EXTT4=
EXTT5=
EXTT6=
EXTT7=
EXTT8=
EXTT9=
PLAYORDER=
